<?xml version="1.0" standalone="no"?>
<!DOCTYPE svg PUBLIC "-//W3C//DTD SVG 20010904//EN"
 "http://www.w3.org/TR/2001/REC-SVG-20010904/DTD/svg10.dtd">
<svg version="1.0" xmlns="http://www.w3.org/2000/svg"
 width="785.000000pt" height="886.000000pt" viewBox="0 0 785.000000 886.000000"
 preserveAspectRatio="xMidYMid meet">

<g transform="translate(0.000000,886.000000) scale(0.100000,-0.100000)"
fill="#000000" stroke="none">
<path d="M3420 8609 c-677 -336 -1526 -752 -2397 -1174 -408 -198 -739 -363
-735 -367 4 -4 116 -58 249 -121 l242 -114 583 290 c1114 553 2544 1251 2563
1250 5 0 325 -157 710 -348 385 -191 1086 -538 1557 -771 l857 -424 256 127
255 128 -193 97 c-168 86 -1409 690 -2944 1434 -265 129 -490 234 -500 234
-10 0 -236 -109 -503 -241z"/>
</g>
</svg>
